<svg width="768" height="596" viewBox="0 0 768 596" fill="none" xmlns="http://www.w3.org/2000/svg">
<path d="M167.472 271.8L312.144 197.288V218.808L190.224 279.912V280.536L312.144 341.656V363.16L167.472 288.648V271.8Z" fill="#FF6600"/>
<path d="M332.496 375.624L419.472 149.576H440.672L353.376 375.624H332.496Z" fill="#FF6600"/>
<path d="M605.04 288.936L460.368 363.144V341.64L583.216 280.52V279.896L460.368 218.792V197.288L605.04 271.496V288.936V288.936Z" fill="#FF6600"/>
<path d="M196.256 452.152C214.848 452.152 229.92 437.08 229.92 418.488C229.92 399.896 214.848 384.824 196.256 384.824C177.664 384.824 162.592 399.896 162.592 418.488C162.592 437.08 177.664 452.152 196.256 452.152Z" fill="black"/>
<path d="M194.656 530.424L162.128 459.896C162.128 459.896 128 460.344 128 491.752C128 523.16 128 530.424 128 530.424C128 530.424 194.896 530.424 194.656 530.424Z" fill="black"/>
<path d="M197.84 530.424L230.368 459.896C230.368 459.896 264.496 460.344 264.496 491.752C264.496 523.16 264.496 530.424 264.496 530.424C264.496 530.424 197.616 530.424 197.84 530.424Z" fill="black"/>
<path d="M196.256 459.896H172.816L196.256 511.768L219.68 459.896H196.256Z" fill="#22ACDD"/>
<path d="M384 452.152C402.592 452.152 417.664 437.08 417.664 418.488C417.664 399.896 402.592 384.824 384 384.824C365.408 384.824 350.336 399.896 350.336 418.488C350.336 437.08 365.408 452.152 384 452.152Z" fill="black"/>
<path d="M382.4 530.424L349.872 459.896C349.872 459.896 315.744 460.344 315.744 491.752C315.744 523.16 315.744 530.424 315.744 530.424C315.744 530.424 382.64 530.424 382.4 530.424Z" fill="black"/>
<path d="M385.6 530.424L418.128 459.896C418.128 459.896 452.256 460.344 452.256 491.752C452.256 523.16 452.256 530.424 452.256 530.424C452.256 530.424 385.36 530.424 385.6 530.424Z" fill="black"/>
<path d="M384 459.896H360.56L384 511.768L407.44 459.896H384Z" fill="#22ACDD"/>
<path d="M571.744 452.152C590.336 452.152 605.408 437.08 605.408 418.488C605.408 399.896 590.336 384.824 571.744 384.824C553.152 384.824 538.08 399.896 538.08 418.488C538.08 437.08 553.152 452.152 571.744 452.152Z" fill="black"/>
<path d="M570.16 530.424L537.632 459.896C537.632 459.896 503.504 460.344 503.504 491.752C503.504 523.16 503.504 530.424 503.504 530.424C503.504 530.424 570.384 530.424 570.16 530.424Z" fill="black"/>
<path d="M573.344 530.424L605.872 459.896C605.872 459.896 640 460.344 640 491.752C640 523.16 640 530.424 640 530.424C640 530.424 573.104 530.424 573.344 530.424Z" fill="black"/>
<path d="M571.744 459.896H548.32L571.744 511.768L595.184 459.896H571.744Z" fill="#22ACDD"/>
<path d="M322 1V126H447V1H322ZM388.119 107.513C386.274 111.262 382.752 113.725 378.671 114.914C372.4 116.354 366.402 115.533 361.94 112.855C358.954 111.023 356.622 108.203 355.039 104.954L364.559 99.124C364.642 99.159 364.892 99.611 365.226 100.195C366.44 102.229 367.487 103.669 369.545 104.68C371.567 105.37 376.006 105.811 377.72 102.253C378.767 100.443 378.434 94.625 378.434 88.188C378.433 78.073 378.48 68 378.48 58H390.189C390.189 69 390.249 79.418 390.189 90.152C390.214 96.732 390.785 102.598 388.119 107.513ZM436.693 104.205C432.623 118.127 409.931 118.579 400.863 109.381C398.947 107.216 397.746 106.085 396.603 103.586C401.422 100.814 401.422 100.814 406.111 98.101C408.658 102.016 411.013 104.169 415.25 105.05C420.998 105.752 426.781 103.777 425.484 97.672C424.151 92.686 413.714 91.473 406.611 86.141C399.4 81.298 397.71 69.53 403.636 62.806C405.611 60.319 408.979 58.463 412.513 57.571L416.201 57.094C423.282 56.951 427.708 58.821 430.957 62.449C431.861 63.365 432.599 64.353 433.979 66.494C430.207 68.898 430.219 68.875 424.816 72.373C423.662 69.887 421.747 68.327 419.723 67.649C416.581 66.697 412.619 67.732 411.797 71.052C411.512 72.075 411.571 73.027 412.024 74.717C413.297 77.62 417.569 78.882 421.401 80.643C432.432 85.117 436.157 89.914 437.073 95.624C437.955 100.54 436.86 103.729 436.693 104.205V104.205Z" fill="#F0DB4F"/>
<path d="M29.854 360.354L21.811 270.143H110.189L102.138 360.34L65.946 370.373L29.854 360.354Z" fill="#E44D26"/>
<path d="M66 362.704L95.244 354.596L102.125 277.52H66V362.704Z" fill="#F16529"/>
<path d="M66 310.978H51.359L50.349 299.647H66V288.583H38.257L38.521 291.552L41.241 322.041H66V310.978ZM66 339.711L65.951 339.724L53.63 336.396L52.842 327.573H41.735L43.285 344.945L65.949 351.237L66 351.222V339.711Z" fill="#EBEBEB"/>
<path d="M30.034 245.627H35.656V251.183H40.8V245.627H46.423V262.449H40.8V256.816H35.657V262.449H30.034V245.627V245.627ZM53.816 251.206H48.866V245.627H64.391V251.206H59.439V262.449H53.816V251.206V251.206ZM66.855 245.627H72.717L76.324 251.538L79.927 245.627H85.792V262.449H80.191V254.111L76.324 260.092H76.226L72.356 254.111V262.449H66.854V245.627H66.855ZM88.591 245.627H94.215V256.889H102.122V262.45H88.591V245.627V245.627Z" fill="black"/>
<path d="M65.962 310.978V322.041H79.586L78.302 336.39L65.962 339.721V351.231L88.644 344.945L88.81 343.075L91.41 313.948L91.68 310.978H88.698H65.962ZM65.962 288.583V299.647H92.687L92.908 297.16L93.413 291.552L93.678 288.583H65.962Z" fill="white"/>
<path d="M719.234 249.856H711.85L719.529 258.189V262.156H703.713V257.511H711.391L703.713 249.178V245.207H719.234V249.856ZM700.577 249.856H693.193L700.872 258.189V262.156H685.055V257.511H692.734L685.055 249.178V245.207H700.577V249.856ZM682.103 250.046H674.135V257.317H682.103V262.156H668.471V245.207H682.103V250.046Z" fill="#131313"/>
<path d="M657.613 360.706L649.516 269.893H738.483L730.379 360.691L693.945 370.793L657.613 360.706V360.706Z" fill="#1572B6"/>
<path d="M694.001 363.072L723.44 354.91L730.366 277.319H694.001V363.072Z" fill="#33A9DC"/>
<path d="M694 310.22H708.738L709.757 298.815H694V287.677H721.929L721.662 290.665L718.925 321.357H694V310.22Z" fill="white"/>
<path d="M694.067 339.146L694.018 339.16L681.614 335.81L680.82 326.927H669.641L671.202 344.415L694.016 350.748L694.068 350.733V339.146H694.067Z" fill="#EBEBEB"/>
<path d="M707.792 320.886L706.45 335.802L694.028 339.155V350.743L716.861 344.415L717.029 342.533L718.967 320.886H707.792Z" fill="white"/>
<path d="M694.039 287.677V298.814H667.136L666.912 296.311L666.405 290.665L666.138 287.677H694.039ZM694 310.221V321.359H681.753L681.53 318.856L681.022 313.209L680.755 310.221H694Z" fill="#EBEBEB"/>
</svg>
