<svg width="512" height="512" viewBox="0 0 512 512" fill="none" xmlns="http://www.w3.org/2000/svg">
<g clip-path="url(#clip0_9_44)">
<path d="M256 512C397.385 512 512 397.385 512 256C512 114.615 397.385 0 256 0C114.615 0 0 114.615 0 256C0 397.385 114.615 512 256 512Z" fill="#FF6600" fill-opacity="0.44"/>
<path d="M0 404H512V416C512 422.6 506.6 428 500 428H12C5.404 428 0 422.6 0 416V404Z" fill="#B3B3B3"/>
<path d="M432 332H80L0 404H512L432 332Z" fill="#E6E6E6"/>
<path d="M41.696 388L86.14 348H425.86L470.304 388H41.696Z" fill="#F5F5F5"/>
<path d="M288 404C288 408.416 284.416 412 280 412H224C219.584 412 216 408.416 216 404H288Z" fill="#E6E6E6"/>
<path d="M80 332V116C80 109.4 85.404 104 92 104H420C426.6 104 432 109.4 432 116V332H80Z" fill="#263740"/>
<path d="M408 128H104V312H408V128Z" fill="#FCFCFC"/>
<path d="M412 344C414.209 344 416 342.209 416 340C416 337.791 414.209 336 412 336C409.791 336 408 337.791 408 340C408 342.209 409.791 344 412 344Z" fill="#70CCBD"/>
<path d="M256 120C258.209 120 260 118.209 260 116C260 113.791 258.209 112 256 112C253.791 112 252 113.791 252 116C252 118.209 253.791 120 256 120Z" fill="#CC584C"/>
<path d="M460 420H420C417.792 420 416 418.212 416 416C416 413.788 417.792 412 420 412H460C462.212 412 464 413.788 464 416C464 418.212 462.212 420 460 420Z" fill="#263740"/>
<path d="M256 231.4C262.296 231.4 267.4 226.296 267.4 220C267.4 213.704 262.296 208.6 256 208.6C249.704 208.6 244.6 213.704 244.6 220C244.6 226.296 249.704 231.4 256 231.4Z" fill="#61DAFB"/>
<path d="M299.3 201.2C297.1 200.4 294.8 199.6 292.4 198.9C293 196.5 293.5 194.1 293.9 191.8C296 178.6 293.7 169.3 287.3 165.7C285.4 164.6 283.3 164.1 280.9 164.1C273.9 164.1 265 169.3 256 178C247 169.3 238.1 164.1 231.1 164.1C228.7 164.1 226.6 164.6 224.7 165.7C218.3 169.4 216 178.7 218.1 191.8C218.5 194.1 219 196.5 219.6 198.9C217.2 199.6 214.9 200.3 212.7 201.2C200.2 206 193.4 212.6 193.4 220C193.4 227.4 200.3 234 212.7 238.8C214.9 239.6 217.2 240.4 219.6 241.1C219 243.5 218.5 245.9 218.1 248.2C216 261.4 218.3 270.7 224.7 274.3C226.6 275.4 228.7 275.9 231.1 275.9C238.2 275.9 247.1 270.7 256 262C265 270.7 273.9 275.9 280.9 275.9C283.3 275.9 285.4 275.4 287.3 274.3C293.7 270.6 296 261.3 293.9 248.2C293.5 245.9 293 243.5 292.4 241.1C294.8 240.4 297.1 239.7 299.3 238.8C311.8 234 318.6 227.4 318.6 220C318.6 212.6 311.8 206 299.3 201.2V201.2ZM284.5 170.7C288.6 173.1 290 180.5 288.3 191C288 193.1 287.5 195.3 286.9 197.6C281.7 196.4 276.2 195.6 270.4 195.1C267 190.3 263.5 186 260 182.1C267.4 174.8 274.9 169.8 281 169.8C282.3 169.8 283.5 170.1 284.5 170.7V170.7ZM273.3 230C271.5 233.2 269.4 236.4 267.2 239.6C263.5 239.9 259.8 240 256 240C252.1 240 248.4 239.9 244.8 239.6C242.6 236.4 240.6 233.2 238.8 230C236.9 226.7 235.1 223.3 233.5 220C235.1 216.7 236.9 213.3 238.8 210C240.6 206.8 242.7 203.6 244.9 200.4C248.6 200.1 252.3 200 256.1 200C260 200 263.7 200.1 267.3 200.4C269.5 203.6 271.5 206.8 273.3 210C275.2 213.3 277 216.7 278.6 220C276.9 223.3 275.2 226.6 273.3 230ZM281.6 226.7C283.1 230.2 284.3 233.6 285.4 237C282 237.8 278.4 238.4 274.6 238.9C275.8 237 277.1 235 278.2 232.9C279.4 230.8 280.5 228.7 281.6 226.7ZM256 253.8C253.6 251.2 251.3 248.4 249.1 245.5C251.4 245.6 253.7 245.7 256 245.7C258.3 245.7 260.6 245.6 262.9 245.5C260.7 248.4 258.4 251.2 256 253.8ZM237.4 238.8C233.6 238.3 230 237.7 226.6 236.9C227.7 233.6 228.9 230.1 230.4 226.6C231.5 228.6 232.6 230.7 233.8 232.7C235 234.9 236.2 236.8 237.4 238.8V238.8ZM230.4 213.3C228.9 209.8 227.7 206.4 226.6 203C230 202.2 233.6 201.6 237.4 201.1C236.2 203 234.9 205 233.8 207.1C232.6 209.2 231.5 211.3 230.4 213.3V213.3ZM256 186.2C258.4 188.8 260.7 191.6 262.9 194.5C260.6 194.4 258.3 194.3 256 194.3C253.7 194.3 251.4 194.4 249.1 194.5C251.3 191.6 253.6 188.8 256 186.2ZM278.2 207.2L274.6 201.2C278.4 201.7 282 202.3 285.4 203.1C284.3 206.4 283.1 209.9 281.6 213.4C280.5 211.3 279.4 209.2 278.2 207.2ZM223.7 191C222 180.5 223.4 173.1 227.5 170.7C228.5 170.1 229.7 169.8 231 169.8C237 169.8 244.5 174.7 252 182.1C248.5 185.9 245 190.3 241.6 195.1C235.8 195.6 230.3 196.5 225.1 197.6C224.5 195.3 224.1 193.1 223.7 191V191ZM199 220C199 215.3 204.7 210.3 214.7 206.6C216.7 205.8 218.9 205.1 221.1 204.5C222.7 209.5 224.7 214.8 227.1 220.1C224.7 225.4 222.6 230.6 221.1 235.6C207.3 231.6 199 225.6 199 220ZM227.5 269.3C223.4 266.9 222 259.5 223.7 249C224 246.9 224.5 244.7 225.1 242.4C230.3 243.6 235.8 244.4 241.6 244.9C245 249.7 248.5 254 252 257.9C244.6 265.2 237.1 270.2 231 270.2C229.7 270.2 228.5 269.9 227.5 269.3ZM288.3 249C290 259.5 288.6 266.9 284.5 269.3C283.5 269.9 282.3 270.2 281 270.2C275 270.2 267.5 265.3 260 257.9C263.5 254.1 267 249.7 270.4 244.9C276.2 244.4 281.7 243.5 286.9 242.4C287.5 244.7 287.9 246.9 288.3 249V249ZM297.3 233.4C295.3 234.2 293.1 234.9 290.9 235.5C289.3 230.5 287.3 225.2 284.9 219.9C287.3 214.6 289.4 209.4 290.9 204.4C304.7 208.4 313 214.4 313 220C313 224.7 307.2 229.7 297.3 233.4Z" fill="#61DAFB"/>
</g>
<defs>
<clipPath id="clip0_9_44">
<rect width="512" height="512" fill="white"/>
</clipPath>
</defs>
</svg>
